<svg xmlns="http://www.w3.org/2000/svg" width="256" height="256" viewBox="0 0 67.733 67.733"><path d="M24.825 10.029v8.136h-1.116q-1.563 0-2.356.67-.769.645-1.091 2.009-.174.744-.198 4.093-.025 3.324-.695 5.234-.496 1.463-1.414 2.356-.695.67-2.282 1.364 1.662.769 2.456 1.612.819.819 1.389 2.53.571 1.687.571 5.407 0 3.349.347 4.366.347 1.017 1.141 1.439.819.422 3.249.422v8.037H21.7q-4.837 0-6.871-1.067-2.034-1.042-2.902-3.076-.868-2.009-.868-6.052 0-.893.05-1.786.025-.546.025-1.116 0-2.877-.521-4.093-.521-1.215-1.513-1.761-.967-.546-2.828-.595V29.65q1.91 0 2.853-.595.967-.595 1.463-1.811.496-1.24.496-4.167v-.843q-.025-.571-.025-1.141 0-4.39.719-6.35.744-1.96 2.034-3.001.967-.794 2.629-1.191 2.208-.521 5.035-.521zm18.083 0v8.136h1.116q1.563 0 2.332.67.794.645 1.116 2.009.174.744.198 4.093.025 3.324.695 5.234.496 1.463 1.414 2.356.695.67 2.282 1.364-1.662.769-2.48 1.612-.794.819-1.364 2.53-.571 1.687-.571 5.407 0 3.349-.347 4.366-.347 1.017-1.166 1.439-.794.422-3.225.422v8.037h3.125q4.837 0 6.871-1.067 2.034-1.042 2.902-3.076.868-2.009.868-6.052 0-.893-.05-1.786-.025-.546-.025-1.116 0-2.877.521-4.093.521-1.215 1.488-1.761.992-.546 2.853-.595V29.65q-1.91 0-2.877-.595-.943-.595-1.439-1.811-.496-1.24-.496-4.167v-.843q.025-.571.025-1.141 0-4.39-.744-6.35-.719-1.96-2.009-3.001-.967-.794-2.629-1.191-2.208-.521-5.035-.521z" fill="#0fc" stroke="#000" stroke-width="2" stroke-linejoin="round"/></svg>
