<svg xmlns="http://www.w3.org/2000/svg" width="223.393" height="91.654" viewBox="0 0 61.625 25.284"><g transform="matrix(1.243556 0 0 1.243556 -14.123167 -29.473237)"><g fill="#0f6" stroke="#000" stroke-linejoin="round" stroke-width=".739"><path d="M26.248 36.701l-6.575 1.041-2.079.329-5.868-6.574 8.086-7.428 9.943 4.964z"/><path d="M18.691 35.246l4.386 7.597.474.821v-9.321m-4.988 4.167l1.206 1.249.378-1.758m3.478-.273l1.191 1.152.402-1.686" stroke-linecap="round"/></g><path d="M34.938 31.86q0-.232-.095-.397-.095-.165-.327-.26-.161-.066-.376-.079-.215-.017-.5-.017h-.575v1.658h.488q.38 0 .637-.037.256-.037.43-.169.165-.128.24-.281.079-.157.079-.418zm2.476 4.271h-1.939l-1.678-2.257h-.732v2.257h-1.579v-6.156h2.662q.546 0 .938.062.393.062.736.269.347.207.55.537.207.327.207.823 0 .682-.318 1.112-.314.43-.901.715zm3.423-1.211v-.967q-.302.025-.653.07-.351.041-.533.099-.223.07-.343.207-.116.132-.116.351 0 .145.025.236.025.091.124.174.095.083.227.124.132.037.413.037.223 0 .451-.091.232-.091.405-.24zm0 .719q-.12.091-.298.219-.178.128-.335.203-.219.099-.455.145-.236.05-.517.05-.661 0-1.108-.409-.446-.409-.446-1.046 0-.508.227-.831.227-.322.645-.508.413-.186 1.025-.265.612-.079 1.269-.116v-.025q0-.384-.314-.529-.314-.149-.926-.149-.368 0-.785.132-.418.128-.599.198h-.136v-1.12q.236-.062.765-.145.533-.087 1.067-.087 1.269 0 1.831.393.566.389.566 1.224v3.158h-1.476zm4.94-1.149l1.058-3.001h1.53l-2.58 6.346h-1.612l.736-1.736-1.807-4.61h1.563zm7.379.124q.232-.281.343-.661.112-.384.112-.901 0-.554-.128-.943-.128-.389-.335-.628-.211-.248-.488-.36-.273-.112-.571-.112-.302 0-.571.107-.265.107-.488.356-.207.232-.339.641-.128.405-.128.943 0 .55.124.938.128.384.335.628.207.244.484.36.277.116.583.116.306 0 .583-.116.277-.12.484-.368zm.169 1.443q.017.409.223.587.207.178.707.178.169 0 .401-.058.232-.058.322-.103h.157v1.091q-.232.054-.504.095-.269.041-.827.041-.492 0-.86-.124-.364-.12-.608-.343-.24-.219-.36-.517-.12-.298-.141-.661-1.381-.079-2.154-.922-.769-.847-.769-2.265 0-1.484.843-2.344.843-.864 2.328-.864 1.48 0 2.328.864.847.86.847 2.344 0 1.096-.496 1.893-.496.794-1.439 1.108zm7.586.074h-4.44v-6.156h1.588v4.965h2.853z"/></g></svg>
